# xmcd
#
# Track frame offsets: 
#        150
#        17056
#        34186
#        46967
#        61623
#        77553
#        93194
#        110802
#        128697
#        142464
#        157204
#        170687
#        186284
#        202371
#        217557
#        232634
#        247338
#
# Disc length: 3457 seconds
#
# Revision: 0
# Processed by: cddbd v1.5.2PL0 Copyright (c) Steve Scherf et al.
# Submitted via: ExactAudioCopy v1.1
#
DISCID=f10d7f11
DTITLE=Various Artist - De Ultieme Feesten Als De Beesten Top 100 2019 - CD 2
DYEAR=2019
DGENRE=Pop-Folk
TTITLE0=Lorenz Büffel - Johnny Däpp
TTITLE1=DJ Ötzi - Anton Aus Tirol
TTITLE2=Snollebollekes - Springen Nondeju
TTITLE3=Gebroeders Ko - Helikopter
TTITLE4=Willy Sommers - Laat De Zon In Je Hart
TTITLE5=De Romeo's - Als Je Zin Hebt In Een Feestje
TTITLE6=Johan Veugelers - Een Man Van Amore
TTITLE7=Stef Ekkel and René Karst - Liever Te Dik In De Kist
TTITLE8=Schiffie and Co - Pinguïndans
TTITLE9=André Van Duin - Er Staat Een Paard In De Gang
TTITLE10=Die Freddies - Hände Hoch
TTITLE11=Benny Neyman - Vrijgezel
TTITLE12=Katastroof Feat. Zattevrienden.Be - Zuipe Anno 2006
TTITLE13=Anja Yelles - De Soep Is Aangebrand
TTITLE14=Dikdakkers - Vliegerlied
TTITLE15=Yves Segers - Waar Zijn Die Handjes?
TTITLE16=Het Feestteam and DJ Maurice - Shirt Uit and Zwaaien
EXTD=
EXTT0=
EXTT1=
EXTT2=
EXTT3=
EXTT4=
EXTT5=
EXTT6=
EXTT7=
EXTT8=
EXTT9=
EXTT10=
EXTT11=
EXTT12=
EXTT13=
EXTT14=
EXTT15=
EXTT16=
PLAYORDER=
